%FSTAX23Y23*%
%MOIN*%
%SFA1B1*%

%IPPOS*%
%AMD19*
4,1,8,0.008400,0.009800,-0.008400,0.009800,-0.010800,0.007400,-0.010800,-0.007400,-0.008400,-0.009800,0.008400,-0.009800,0.010800,-0.007400,0.010800,0.007400,0.008400,0.009800,0.0*
1,1,0.004921,0.008400,0.007400*
1,1,0.004921,-0.008400,0.007400*
1,1,0.004921,-0.008400,-0.007400*
1,1,0.004921,0.008400,-0.007400*
%
%ADD18R,0.078740X0.157480*%
G04~CAMADD=19~8~0.0~0.0~216.5~196.9~24.6~0.0~15~0.0~0.0~0.0~0.0~0~0.0~0.0~0.0~0.0~0~0.0~0.0~0.0~0.0~216.5~196.9*
%ADD19D19*%
%ADD22R,0.062992X0.059055*%
%ADD23R,0.027559X0.035433*%
%ADD24R,0.039370X0.122047*%
%ADD25R,0.049212X0.027559*%
%ADD26R,0.049212X0.015748*%
%ADD27C,0.041339*%
%ADD28C,0.062000*%
%ADD29R,0.041339X0.041339*%
%ADD30O,0.070866X0.039370*%
%ADD31O,0.082677X0.039370*%
%ADD32C,0.025591*%
%ADD33R,0.061024X0.061024*%
%ADD34C,0.061024*%
%ADD35C,0.050000*%
%LNpi_power_pcb-1*%
%LPD*%
G54D18*
X01155Y0122D03*
Y01499D03*
G54D19*
X01835Y00644D03*
Y0068D03*
X01435Y01327D03*
X0235Y00662D03*
X01363Y00609D03*
X0092Y00642D03*
Y00607D03*
X00986Y01671D03*
Y01636D03*
X01435Y01362D03*
X0235Y00627D03*
X01363Y00573D03*
G54D22*
X00755Y0206D03*
Y01919D03*
G54D23*
X00329Y01685D03*
X00147Y01715D03*
X00278Y01685D03*
X00096Y01715D03*
G54D24*
X00375Y00441D03*
Y00228D03*
X00275Y00441D03*
Y00228D03*
G54D25*
X00087Y01479D03*
Y0129D03*
Y01259D03*
Y0151D03*
G54D26*
X00087Y01394D03*
Y01375D03*
Y01414D03*
Y01434D03*
Y01355D03*
Y01335D03*
Y01316D03*
Y01453D03*
G54D27*
X02035Y00651D03*
X0112Y0064D03*
X026Y0063D03*
X0161Y006D03*
G54D28*
X01825Y003D03*
X02025D03*
X02125D03*
X01725D03*
X01325D03*
X00925D03*
X01025D03*
X02325D03*
X02225D03*
X01925D03*
X01625D03*
X01525D03*
X01425D03*
X01225D03*
X01125D03*
G54D29*
X02035Y0073D03*
X026Y00709D03*
X0161Y00679D03*
X0112Y00719D03*
G54D30*
X00275Y01214D03*
Y01555D03*
G54D31*
X0011Y01214D03*
Y01555D03*
G54D32*
X0013Y01498D03*
Y01271D03*
G54D33*
X00565Y01305D03*
G54D34*
X00651Y01503D03*
G54D35*
X0064Y0205D03*
X02565Y01555D03*
X00222Y01736D03*
X01724Y00435D03*
X02125Y0043D03*
X01325Y00425D03*
X00925Y0042D03*
M02*