%FSTAX23Y23*%
%MOIN*%
%SFA1B1*%

%IPPOS*%
%ADD10C,0.007874*%
%ADD11C,0.005000*%
%ADD12C,0.020000*%
%ADD13C,0.009843*%
%ADD14C,0.005905*%
%ADD15C,0.006000*%
%ADD16C,0.003937*%
%ADD17C,0.010000*%
%LNpi_power_pcb-1*%
%LPD*%
G54D10*
X01237Y01548D02*
D01*
X01237Y01549*
X01237Y01549*
X01237Y01549*
X01237Y0155*
X01237Y0155*
X01237Y0155*
X01237Y0155*
X01237Y01551*
X01236Y01551*
X01236Y01551*
X01236Y01551*
X01236Y01551*
X01236Y01552*
X01235Y01552*
X01235Y01552*
X01235Y01552*
X01235Y01552*
X01234Y01552*
X01234Y01552*
X01234Y01552*
X01234Y01552*
X01233Y01552*
X01233*
X01233Y01552*
X01233Y01552*
X01232Y01552*
X01232Y01552*
X01232Y01552*
X01232Y01552*
X01231Y01552*
X01231Y01552*
X01231Y01552*
X01231Y01551*
X0123Y01551*
X0123Y01551*
X0123Y01551*
X0123Y01551*
X0123Y0155*
X0123Y0155*
X0123Y0155*
X01229Y0155*
X01229Y01549*
X01229Y01549*
X01229Y01549*
X01229Y01548*
X01229Y01548*
X01229Y01548*
X01229Y01548*
X01229Y01547*
X0123Y01547*
X0123Y01547*
X0123Y01547*
X0123Y01546*
X0123Y01546*
X0123Y01546*
X0123Y01546*
X01231Y01546*
X01231Y01545*
X01231Y01545*
X01231Y01545*
X01232Y01545*
X01232Y01545*
X01232Y01545*
X01232Y01545*
X01233Y01545*
X01233Y01545*
X01233Y01545*
X01233*
X01234Y01545*
X01234Y01545*
X01234Y01545*
X01234Y01545*
X01235Y01545*
X01235Y01545*
X01235Y01545*
X01235Y01545*
X01236Y01545*
X01236Y01546*
X01236Y01546*
X01236Y01546*
X01236Y01546*
X01237Y01546*
X01237Y01547*
X01237Y01547*
X01237Y01547*
X01237Y01547*
X01237Y01548*
X01237Y01548*
X01237Y01548*
X01237Y01548*
X00042Y01257D02*
D01*
X00042Y01257*
X00042Y01257*
X00042Y01257*
X00042Y01258*
X00042Y01258*
X00042Y01258*
X00042Y01258*
X00042Y01259*
X00041Y01259*
X00041Y01259*
X00041Y01259*
X00041Y01259*
X00041Y0126*
X0004Y0126*
X0004Y0126*
X0004Y0126*
X0004Y0126*
X00039Y0126*
X00039Y0126*
X00039Y0126*
X00039Y0126*
X00038Y0126*
X00038*
X00038Y0126*
X00038Y0126*
X00037Y0126*
X00037Y0126*
X00037Y0126*
X00037Y0126*
X00036Y0126*
X00036Y0126*
X00036Y0126*
X00036Y01259*
X00035Y01259*
X00035Y01259*
X00035Y01259*
X00035Y01259*
X00035Y01258*
X00035Y01258*
X00035Y01258*
X00034Y01258*
X00034Y01257*
X00034Y01257*
X00034Y01257*
X00034Y01257*
X00034Y01256*
X00034Y01256*
X00034Y01256*
X00034Y01255*
X00035Y01255*
X00035Y01255*
X00035Y01255*
X00035Y01254*
X00035Y01254*
X00035Y01254*
X00035Y01254*
X00036Y01254*
X00036Y01253*
X00036Y01253*
X00036Y01253*
X00037Y01253*
X00037Y01253*
X00037Y01253*
X00037Y01253*
X00038Y01253*
X00038Y01253*
X00038Y01253*
X00038*
X00039Y01253*
X00039Y01253*
X00039Y01253*
X00039Y01253*
X0004Y01253*
X0004Y01253*
X0004Y01253*
X0004Y01253*
X00041Y01253*
X00041Y01254*
X00041Y01254*
X00041Y01254*
X00041Y01254*
X00042Y01254*
X00042Y01255*
X00042Y01255*
X00042Y01255*
X00042Y01255*
X00042Y01256*
X00042Y01256*
X00042Y01256*
X00042Y01257*
X01123Y00807D02*
D01*
X01123Y00808*
X01123Y00808*
X01123Y00808*
X01123Y00809*
X01123Y00809*
X01123Y00809*
X01123Y00809*
X01123Y0081*
X01123Y0081*
X01123Y0081*
X01122Y0081*
X01122Y0081*
X01122Y00811*
X01122Y00811*
X01121Y00811*
X01121Y00811*
X01121Y00811*
X01121Y00811*
X0112Y00811*
X0112Y00811*
X0112Y00811*
X0112Y00811*
X01119*
X01119Y00811*
X01119Y00811*
X01119Y00811*
X01118Y00811*
X01118Y00811*
X01118Y00811*
X01118Y00811*
X01117Y00811*
X01117Y00811*
X01117Y0081*
X01117Y0081*
X01116Y0081*
X01116Y0081*
X01116Y0081*
X01116Y00809*
X01116Y00809*
X01116Y00809*
X01116Y00809*
X01116Y00808*
X01116Y00808*
X01116Y00808*
X01116Y00807*
X01116Y00807*
X01116Y00807*
X01116Y00807*
X01116Y00806*
X01116Y00806*
X01116Y00806*
X01116Y00806*
X01116Y00805*
X01116Y00805*
X01116Y00805*
X01117Y00805*
X01117Y00805*
X01117Y00804*
X01117Y00804*
X01118Y00804*
X01118Y00804*
X01118Y00804*
X01118Y00804*
X01119Y00804*
X01119Y00804*
X01119Y00804*
X01119Y00804*
X0112*
X0112Y00804*
X0112Y00804*
X0112Y00804*
X01121Y00804*
X01121Y00804*
X01121Y00804*
X01121Y00804*
X01122Y00804*
X01122Y00804*
X01122Y00805*
X01122Y00805*
X01123Y00805*
X01123Y00805*
X01123Y00805*
X01123Y00806*
X01123Y00806*
X01123Y00806*
X01123Y00806*
X01123Y00807*
X01123Y00807*
X01123Y00807*
X01123Y00807*
X02603Y00797D02*
D01*
X02603Y00798*
X02603Y00798*
X02603Y00798*
X02603Y00799*
X02603Y00799*
X02603Y00799*
X02603Y00799*
X02603Y008*
X02603Y008*
X02603Y008*
X02602Y008*
X02602Y008*
X02602Y00801*
X02602Y00801*
X02601Y00801*
X02601Y00801*
X02601Y00801*
X02601Y00801*
X026Y00801*
X026Y00801*
X026Y00801*
X026Y00801*
X02599*
X02599Y00801*
X02599Y00801*
X02599Y00801*
X02598Y00801*
X02598Y00801*
X02598Y00801*
X02598Y00801*
X02597Y00801*
X02597Y00801*
X02597Y008*
X02597Y008*
X02596Y008*
X02596Y008*
X02596Y008*
X02596Y00799*
X02596Y00799*
X02596Y00799*
X02596Y00799*
X02596Y00798*
X02596Y00798*
X02596Y00798*
X02596Y00797*
X02596Y00797*
X02596Y00797*
X02596Y00797*
X02596Y00796*
X02596Y00796*
X02596Y00796*
X02596Y00796*
X02596Y00795*
X02596Y00795*
X02596Y00795*
X02597Y00795*
X02597Y00795*
X02597Y00794*
X02597Y00794*
X02598Y00794*
X02598Y00794*
X02598Y00794*
X02598Y00794*
X02599Y00794*
X02599Y00794*
X02599Y00794*
X02599Y00794*
X026*
X026Y00794*
X026Y00794*
X026Y00794*
X02601Y00794*
X02601Y00794*
X02601Y00794*
X02601Y00794*
X02602Y00794*
X02602Y00794*
X02602Y00795*
X02602Y00795*
X02603Y00795*
X02603Y00795*
X02603Y00795*
X02603Y00796*
X02603Y00796*
X02603Y00796*
X02603Y00796*
X02603Y00797*
X02603Y00797*
X02603Y00797*
X02603Y00797*
X02038Y00818D02*
D01*
X02038Y00818*
X02038Y00819*
X02038Y00819*
X02038Y00819*
X02038Y00819*
X02038Y0082*
X02038Y0082*
X02038Y0082*
X02038Y0082*
X02038Y00821*
X02037Y00821*
X02037Y00821*
X02037Y00821*
X02037Y00821*
X02036Y00821*
X02036Y00822*
X02036Y00822*
X02036Y00822*
X02035Y00822*
X02035Y00822*
X02035Y00822*
X02035Y00822*
X02034*
X02034Y00822*
X02034Y00822*
X02034Y00822*
X02033Y00822*
X02033Y00822*
X02033Y00822*
X02033Y00821*
X02032Y00821*
X02032Y00821*
X02032Y00821*
X02032Y00821*
X02031Y00821*
X02031Y0082*
X02031Y0082*
X02031Y0082*
X02031Y0082*
X02031Y00819*
X02031Y00819*
X02031Y00819*
X02031Y00819*
X02031Y00818*
X02031Y00818*
X02031Y00818*
X02031Y00818*
X02031Y00817*
X02031Y00817*
X02031Y00817*
X02031Y00816*
X02031Y00816*
X02031Y00816*
X02031Y00816*
X02031Y00816*
X02032Y00815*
X02032Y00815*
X02032Y00815*
X02032Y00815*
X02033Y00815*
X02033Y00815*
X02033Y00814*
X02033Y00814*
X02034Y00814*
X02034Y00814*
X02034Y00814*
X02034Y00814*
X02035*
X02035Y00814*
X02035Y00814*
X02035Y00814*
X02036Y00814*
X02036Y00814*
X02036Y00815*
X02036Y00815*
X02037Y00815*
X02037Y00815*
X02037Y00815*
X02037Y00815*
X02038Y00816*
X02038Y00816*
X02038Y00816*
X02038Y00816*
X02038Y00816*
X02038Y00817*
X02038Y00817*
X02038Y00817*
X02038Y00818*
X02038Y00818*
X02038Y00818*
X01613Y00767D02*
D01*
X01613Y00768*
X01613Y00768*
X01613Y00768*
X01613Y00769*
X01613Y00769*
X01613Y00769*
X01613Y00769*
X01613Y0077*
X01613Y0077*
X01613Y0077*
X01612Y0077*
X01612Y0077*
X01612Y00771*
X01612Y00771*
X01611Y00771*
X01611Y00771*
X01611Y00771*
X01611Y00771*
X0161Y00771*
X0161Y00771*
X0161Y00771*
X0161Y00771*
X01609*
X01609Y00771*
X01609Y00771*
X01609Y00771*
X01608Y00771*
X01608Y00771*
X01608Y00771*
X01608Y00771*
X01607Y00771*
X01607Y00771*
X01607Y0077*
X01607Y0077*
X01606Y0077*
X01606Y0077*
X01606Y0077*
X01606Y00769*
X01606Y00769*
X01606Y00769*
X01606Y00769*
X01606Y00768*
X01606Y00768*
X01606Y00768*
X01606Y00767*
X01606Y00767*
X01606Y00767*
X01606Y00767*
X01606Y00766*
X01606Y00766*
X01606Y00766*
X01606Y00766*
X01606Y00765*
X01606Y00765*
X01606Y00765*
X01607Y00765*
X01607Y00765*
X01607Y00764*
X01607Y00764*
X01608Y00764*
X01608Y00764*
X01608Y00764*
X01608Y00764*
X01609Y00764*
X01609Y00764*
X01609Y00764*
X01609Y00764*
X0161*
X0161Y00764*
X0161Y00764*
X0161Y00764*
X01611Y00764*
X01611Y00764*
X01611Y00764*
X01611Y00764*
X01612Y00764*
X01612Y00764*
X01612Y00765*
X01612Y00765*
X01613Y00765*
X01613Y00765*
X01613Y00765*
X01613Y00766*
X01613Y00766*
X01613Y00766*
X01613Y00766*
X01613Y00767*
X01613Y00767*
X01613Y00767*
X01613Y00767*
X00326Y01209D02*
X00377D01*
X00326Y0156D02*
X00377D01*
X0017Y01209D02*
X00219D01*
X0017Y0156D02*
X00219D01*
X00549Y0118D02*
Y0126D01*
Y01349D02*
Y01628D01*
X00667*
Y0118D02*
Y01459D01*
Y01548D02*
Y01628D01*
X00549Y0118D02*
X00667D01*
X00406Y00437D02*
X00427D01*
X00406Y00232D02*
X00427D01*
X00222D02*
X00243D01*
X00222Y00437D02*
X00243D01*
X00427Y00232D02*
Y00437D01*
X00222Y00232D02*
Y00437D01*
G54D11*
X01218Y0068D02*
D01*
X01218Y00686*
X01217Y00693*
X01216Y007*
X01214Y00707*
X01212Y00713*
X01209Y0072*
X01206Y00726*
X01203Y00732*
X01199Y00737*
X01195Y00743*
X0119Y00748*
X01185Y00753*
X0118Y00757*
X01175Y00761*
X01169Y00765*
X01163Y00768*
X01156Y00771*
X0115Y00773*
X01143Y00775*
X01137Y00776*
X0113Y00777*
X01123Y00778*
X01116*
X01109Y00777*
X01102Y00776*
X01096Y00775*
X01089Y00773*
X01083Y00771*
X01076Y00768*
X0107Y00765*
X01064Y00761*
X01059Y00757*
X01054Y00753*
X01049Y00748*
X01044Y00743*
X0104Y00737*
X01036Y00732*
X01033Y00726*
X0103Y0072*
X01027Y00713*
X01025Y00707*
X01023Y007*
X01022Y00693*
X01021Y00686*
X01021Y0068*
X01021Y00673*
X01022Y00666*
X01023Y00659*
X01025Y00652*
X01027Y00646*
X0103Y00639*
X01033Y00633*
X01036Y00627*
X0104Y00622*
X01044Y00616*
X01049Y00611*
X01054Y00606*
X01059Y00602*
X01064Y00598*
X0107Y00594*
X01076Y00591*
X01083Y00588*
X01089Y00586*
X01096Y00584*
X01102Y00583*
X01109Y00582*
X01116Y00581*
X01123*
X0113Y00582*
X01137Y00583*
X01143Y00584*
X0115Y00586*
X01156Y00588*
X01163Y00591*
X01169Y00594*
X01175Y00598*
X0118Y00602*
X01185Y00606*
X0119Y00611*
X01195Y00616*
X01199Y00622*
X01203Y00627*
X01206Y00633*
X01209Y00639*
X01212Y00646*
X01214Y00652*
X01216Y00659*
X01217Y00666*
X01218Y00673*
X01218Y0068*
X02698Y0067D02*
D01*
X02698Y00676*
X02697Y00683*
X02696Y0069*
X02694Y00697*
X02692Y00703*
X02689Y0071*
X02686Y00716*
X02683Y00722*
X02679Y00727*
X02675Y00733*
X0267Y00738*
X02665Y00743*
X0266Y00747*
X02655Y00751*
X02649Y00755*
X02643Y00758*
X02636Y00761*
X0263Y00763*
X02623Y00765*
X02617Y00766*
X0261Y00767*
X02603Y00768*
X02596*
X02589Y00767*
X02582Y00766*
X02576Y00765*
X02569Y00763*
X02563Y00761*
X02556Y00758*
X0255Y00755*
X02544Y00751*
X02539Y00747*
X02534Y00743*
X02529Y00738*
X02524Y00733*
X0252Y00727*
X02516Y00722*
X02513Y00716*
X0251Y0071*
X02507Y00703*
X02505Y00697*
X02503Y0069*
X02502Y00683*
X02501Y00676*
X02501Y0067*
X02501Y00663*
X02502Y00656*
X02503Y00649*
X02505Y00642*
X02507Y00636*
X0251Y00629*
X02513Y00623*
X02516Y00617*
X0252Y00612*
X02524Y00606*
X02529Y00601*
X02534Y00596*
X02539Y00592*
X02544Y00588*
X0255Y00584*
X02556Y00581*
X02563Y00578*
X02569Y00576*
X02576Y00574*
X02582Y00573*
X02589Y00572*
X02596Y00571*
X02603*
X0261Y00572*
X02617Y00573*
X02623Y00574*
X0263Y00576*
X02636Y00578*
X02643Y00581*
X02649Y00584*
X02655Y00588*
X0266Y00592*
X02665Y00596*
X0267Y00601*
X02675Y00606*
X02679Y00612*
X02683Y00617*
X02686Y00623*
X02689Y00629*
X02692Y00636*
X02694Y00642*
X02696Y00649*
X02697Y00656*
X02698Y00663*
X02698Y0067*
X02133Y0069D02*
D01*
X02133Y00697*
X02132Y00704*
X02131Y00711*
X02129Y00717*
X02127Y00724*
X02124Y0073*
X02121Y00736*
X02118Y00742*
X02114Y00748*
X0211Y00753*
X02105Y00759*
X021Y00763*
X02095Y00768*
X0209Y00772*
X02084Y00775*
X02078Y00779*
X02071Y00781*
X02065Y00784*
X02058Y00786*
X02052Y00787*
X02045Y00788*
X02038Y00788*
X02031*
X02024Y00788*
X02017Y00787*
X02011Y00786*
X02004Y00784*
X01998Y00781*
X01991Y00779*
X01985Y00775*
X01979Y00772*
X01974Y00768*
X01969Y00763*
X01964Y00759*
X01959Y00753*
X01955Y00748*
X01951Y00742*
X01948Y00736*
X01945Y0073*
X01942Y00724*
X0194Y00717*
X01938Y00711*
X01937Y00704*
X01936Y00697*
X01936Y0069*
X01936Y00683*
X01937Y00676*
X01938Y0067*
X0194Y00663*
X01942Y00656*
X01945Y0065*
X01948Y00644*
X01951Y00638*
X01955Y00632*
X01959Y00627*
X01964Y00622*
X01969Y00617*
X01974Y00613*
X01979Y00609*
X01985Y00605*
X01991Y00602*
X01998Y00599*
X02004Y00597*
X02011Y00595*
X02017Y00593*
X02024Y00592*
X02031Y00592*
X02038*
X02045Y00592*
X02052Y00593*
X02058Y00595*
X02065Y00597*
X02071Y00599*
X02078Y00602*
X02084Y00605*
X0209Y00609*
X02095Y00613*
X021Y00617*
X02105Y00622*
X0211Y00627*
X02114Y00632*
X02118Y00638*
X02121Y00644*
X02124Y0065*
X02127Y00656*
X02129Y00663*
X02131Y0067*
X02132Y00676*
X02133Y00683*
X02133Y0069*
X01708Y0064D02*
D01*
X01708Y00646*
X01707Y00653*
X01706Y0066*
X01704Y00667*
X01702Y00673*
X01699Y0068*
X01696Y00686*
X01693Y00692*
X01689Y00697*
X01685Y00703*
X0168Y00708*
X01675Y00713*
X0167Y00717*
X01665Y00721*
X01659Y00725*
X01653Y00728*
X01646Y00731*
X0164Y00733*
X01633Y00735*
X01627Y00736*
X0162Y00737*
X01613Y00738*
X01606*
X01599Y00737*
X01592Y00736*
X01586Y00735*
X01579Y00733*
X01573Y00731*
X01566Y00728*
X0156Y00725*
X01554Y00721*
X01549Y00717*
X01544Y00713*
X01539Y00708*
X01534Y00703*
X0153Y00697*
X01526Y00692*
X01523Y00686*
X0152Y0068*
X01517Y00673*
X01515Y00667*
X01513Y0066*
X01512Y00653*
X01511Y00646*
X01511Y0064*
X01511Y00633*
X01512Y00626*
X01513Y00619*
X01515Y00612*
X01517Y00606*
X0152Y00599*
X01523Y00593*
X01526Y00587*
X0153Y00582*
X01534Y00576*
X01539Y00571*
X01544Y00566*
X01549Y00562*
X01554Y00558*
X0156Y00554*
X01566Y00551*
X01573Y00548*
X01579Y00546*
X01586Y00544*
X01592Y00543*
X01599Y00542*
X01606Y00541*
X01613*
X0162Y00542*
X01627Y00543*
X01633Y00544*
X0164Y00546*
X01646Y00548*
X01653Y00551*
X01659Y00554*
X01665Y00558*
X0167Y00562*
X01675Y00566*
X0168Y00571*
X01685Y00576*
X01689Y00582*
X01693Y00587*
X01696Y00593*
X01699Y00599*
X01702Y00606*
X01704Y00612*
X01706Y00619*
X01707Y00626*
X01708Y00633*
X01708Y0064*
X00991Y01196D02*
X01103D01*
X01206D02*
X01318D01*
X0105Y01523D02*
X01103D01*
X01206D02*
X01259D01*
X01318Y01464*
Y01196D02*
Y01464D01*
X00991Y01196D02*
Y01464D01*
X0105Y01523*
X00297Y01694D02*
X00309D01*
X00297Y01675D02*
X00309D01*
X00116Y01724D02*
X00128D01*
X00116Y01705D02*
X00128D01*
G54D12*
X0083Y003D02*
D01*
X0083Y00298*
X0083Y00297*
X0083Y00296*
X0083Y00295*
X0083Y00294*
X00831Y00293*
X00831Y00292*
X00832Y00292*
X00832Y00291*
X00833Y0029*
X00834Y00289*
X00834Y00288*
X00835Y00288*
X00836Y00287*
X00837Y00287*
X00838Y00286*
X00839Y00286*
X0084Y00285*
X00841Y00285*
X00842Y00285*
X00843Y00285*
X00844Y00285*
X00845*
X00846Y00285*
X00847Y00285*
X00848Y00285*
X00849Y00285*
X0085Y00286*
X00851Y00286*
X00852Y00287*
X00853Y00287*
X00854Y00288*
X00855Y00288*
X00855Y00289*
X00856Y0029*
X00857Y00291*
X00857Y00292*
X00858Y00292*
X00858Y00293*
X00859Y00294*
X00859Y00295*
X00859Y00296*
X00859Y00297*
X00859Y00298*
X0086Y003*
D01*
X00859Y00301*
X00859Y00302*
X00859Y00303*
X00859Y00304*
X00859Y00305*
X00858Y00306*
X00858Y00307*
X00857Y00307*
X00857Y00308*
X00856Y00309*
X00855Y0031*
X00855Y00311*
X00854Y00311*
X00853Y00312*
X00852Y00312*
X00851Y00313*
X0085Y00313*
X00849Y00314*
X00848Y00314*
X00847Y00314*
X00846Y00314*
X00845Y00314*
X00844*
X00843Y00314*
X00842Y00314*
X00841Y00314*
X0084Y00314*
X00839Y00313*
X00838Y00313*
X00837Y00312*
X00836Y00312*
X00835Y00311*
X00834Y00311*
X00834Y0031*
X00833Y00309*
X00832Y00308*
X00832Y00307*
X00831Y00307*
X00831Y00306*
X0083Y00305*
X0083Y00304*
X0083Y00303*
X0083Y00302*
X0083Y00301*
X0083Y003*
G54D13*
X00235Y00201D02*
D01*
X00235Y00201*
X00235Y00201*
X00235Y00202*
X00235Y00202*
X00235Y00202*
X00235Y00203*
X00234Y00203*
X00234Y00203*
X00234Y00204*
X00234Y00204*
X00234Y00204*
X00233Y00204*
X00233Y00205*
X00233Y00205*
X00232Y00205*
X00232Y00205*
X00232Y00205*
X00232Y00205*
X00231Y00205*
X00231Y00205*
X00231Y00206*
X0023Y00206*
X0023*
X00229Y00206*
X00229Y00205*
X00229Y00205*
X00228Y00205*
X00228Y00205*
X00228Y00205*
X00228Y00205*
X00227Y00205*
X00227Y00205*
X00227Y00204*
X00226Y00204*
X00226Y00204*
X00226Y00204*
X00226Y00203*
X00226Y00203*
X00226Y00203*
X00225Y00202*
X00225Y00202*
X00225Y00202*
X00225Y00201*
X00225Y00201*
X00225Y00201*
X00225Y002*
X00225Y002*
X00225Y002*
X00225Y00199*
X00225Y00199*
X00226Y00199*
X00226Y00198*
X00226Y00198*
X00226Y00198*
X00226Y00197*
X00226Y00197*
X00227Y00197*
X00227Y00197*
X00227Y00197*
X00228Y00196*
X00228Y00196*
X00228Y00196*
X00228Y00196*
X00229Y00196*
X00229Y00196*
X00229Y00196*
X0023Y00196*
X0023*
X00231Y00196*
X00231Y00196*
X00231Y00196*
X00232Y00196*
X00232Y00196*
X00232Y00196*
X00232Y00196*
X00233Y00197*
X00233Y00197*
X00233Y00197*
X00234Y00197*
X00234Y00197*
X00234Y00198*
X00234Y00198*
X00234Y00198*
X00235Y00199*
X00235Y00199*
X00235Y00199*
X00235Y002*
X00235Y002*
X00235Y002*
X00235Y00201*
X0076Y02113D02*
D01*
X0076Y02113*
X0076Y02113*
X0076Y02114*
X0076Y02114*
X0076Y02114*
X0076Y02115*
X0076Y02115*
X0076Y02115*
X00759Y02115*
X00759Y02116*
X00759Y02116*
X00759Y02116*
X00759Y02116*
X00758Y02117*
X00758Y02117*
X00758Y02117*
X00757Y02117*
X00757Y02117*
X00757Y02117*
X00756Y02117*
X00756Y02117*
X00756Y02117*
X00755*
X00755Y02117*
X00755Y02117*
X00754Y02117*
X00754Y02117*
X00754Y02117*
X00753Y02117*
X00753Y02117*
X00753Y02117*
X00752Y02116*
X00752Y02116*
X00752Y02116*
X00752Y02116*
X00752Y02115*
X00751Y02115*
X00751Y02115*
X00751Y02115*
X00751Y02114*
X00751Y02114*
X00751Y02114*
X00751Y02113*
X00751Y02113*
X00751Y02113*
X00751Y02112*
X00751Y02112*
X00751Y02112*
X00751Y02111*
X00751Y02111*
X00751Y02111*
X00751Y0211*
X00751Y0211*
X00752Y0211*
X00752Y02109*
X00752Y02109*
X00752Y02109*
X00752Y02109*
X00753Y02108*
X00753Y02108*
X00753Y02108*
X00754Y02108*
X00754Y02108*
X00754Y02108*
X00755Y02108*
X00755Y02108*
X00755Y02108*
X00756*
X00756Y02108*
X00756Y02108*
X00757Y02108*
X00757Y02108*
X00757Y02108*
X00758Y02108*
X00758Y02108*
X00758Y02108*
X00759Y02109*
X00759Y02109*
X00759Y02109*
X00759Y02109*
X00759Y0211*
X0076Y0211*
X0076Y0211*
X0076Y02111*
X0076Y02111*
X0076Y02111*
X0076Y02112*
X0076Y02112*
X0076Y02112*
X0076Y02113*
G54D14*
X01827Y00662D02*
X01842D01*
X00912Y00625D02*
X00927D01*
X00978Y01653D02*
X00994D01*
X01427Y01345D02*
X01442D01*
X02342Y00645D02*
X02357D01*
X01355Y00591D02*
X01371D01*
X00267Y00573D02*
X00264Y0057D01*
X00264Y00563*
X00267Y0056*
X0027Y0056*
X00274Y00563*
X00274Y0057*
X00277Y00573*
X0028Y00573*
X00283Y0057*
X00283Y00564*
X0028Y0056*
X00264Y0058D02*
X00263Y00586D01*
X00263Y00583*
X00283Y00583*
X00283Y0058*
X00283Y00587*
X00266Y00609D02*
X00263Y00606D01*
X00263Y00599*
X00267Y00596*
X0028Y00596*
X00283Y006*
X00283Y00606*
X00279Y00609*
X00273Y00609*
X00273Y00603*
X00282Y00636D02*
X00282Y00642D01*
X00282Y00639*
X00263Y00639*
X00266Y00636*
X00367Y00573D02*
X00364Y0057D01*
X00364Y00563*
X00367Y0056*
X0037Y0056*
X00374Y00563*
X00374Y0057*
X00377Y00573*
X0038Y00573*
X00383Y0057*
X00383Y00564*
X0038Y0056*
X00364Y0058D02*
X00363Y00586D01*
X00363Y00583*
X00383Y00583*
X00383Y0058*
X00383Y00587*
X00366Y00609D02*
X00363Y00606D01*
X00363Y00599*
X00367Y00596*
X0038Y00596*
X00383Y006*
X00383Y00606*
X00379Y00609*
X00373Y00609*
X00373Y00603*
X00382Y00646D02*
X00363Y00645D01*
X00373Y00636*
X00372Y00649*
X00192Y00088D02*
X00189Y00085D01*
X00189Y00078*
X00192Y00075*
X00195Y00075*
X00199Y00078*
X00199Y00085*
X00202Y00088*
X00205Y00088*
X00208Y00085*
X00208Y00079*
X00205Y00075*
X00189Y00095D02*
X00188Y00101D01*
X00188Y00098*
X00208Y00098*
X00208Y00095*
X00208Y00102*
X00191Y00124D02*
X00188Y00121D01*
X00188Y00114*
X00192Y00111*
X00205Y00111*
X00208Y00115*
X00208Y00121*
X00204Y00124*
X00198Y00124*
X00198Y00118*
X00207Y00164D02*
X00207Y00151D01*
X00194Y00164*
X00191Y00164*
X00188Y0016*
X00188Y00154*
X00191Y00151*
X00377Y00063D02*
X00374Y0006D01*
X00374Y00053*
X00377Y0005*
X0038Y0005*
X00384Y00053*
X00384Y0006*
X00387Y00063*
X0039Y00063*
X00393Y0006*
X00393Y00054*
X0039Y0005*
X00374Y0007D02*
X00373Y00076D01*
X00373Y00073*
X00393Y00073*
X00393Y0007*
X00393Y00077*
X00376Y00099D02*
X00373Y00096D01*
X00373Y00089*
X00377Y00086*
X0039Y00086*
X00393Y0009*
X00393Y00096*
X00389Y00099*
X00383Y00099*
X00383Y00093*
X00376Y00126D02*
X00373Y00129D01*
X00373Y00135*
X00376Y00139*
X00379Y00139*
X00382Y00135*
X00382Y00132*
X00382Y00135*
X00386Y00139*
X00389Y00139*
X00392Y00136*
X00392Y00129*
X00389Y00126*
G54D15*
X0238Y00246D02*
Y00354D01*
X0087Y00246D02*
X0238D01*
X0087D02*
Y00354D01*
X0238*
G54D16*
X01673Y0012D02*
X01677Y00123D01*
X01683*
X01687Y0012*
Y00117*
X01683Y00113*
X0168*
X01683*
X01687Y0011*
Y00107*
X01683Y00103*
X01677*
X01673Y00107*
X01693Y00117D02*
X01696D01*
Y00113*
X01693*
Y00117*
Y00107D02*
X01696D01*
Y00103*
X01693*
Y00107*
X01723Y0012D02*
X01719Y00123D01*
X01713*
X0171Y0012*
Y00107*
X01713Y00103*
X01719*
X01723Y00107*
Y00113*
X01716*
X01729Y00103D02*
Y00123D01*
X01742Y00103*
Y00123*
X01749D02*
Y00103D01*
X01759*
X01762Y00107*
Y0012*
X01759Y00123*
X01749*
X01808D02*
Y0011D01*
X01814Y00103*
X01821Y0011*
Y00123*
X01828Y00113D02*
X01841D01*
X01834Y0012D02*
Y00107D01*
X019Y0012D02*
X01896Y00123D01*
X0189*
X01887Y0012*
Y00117*
X0189Y00113*
X01896*
X019Y0011*
Y00107*
X01896Y00103*
X0189*
X01887Y00107*
X01906Y00123D02*
X01913D01*
X0191*
Y00103*
X01906*
X01913*
X01936Y0012D02*
X01933Y00123D01*
X01926*
X01923Y0012*
Y00107*
X01926Y00103*
X01933*
X01936Y00107*
Y00113*
X01929*
X02108Y00098D02*
Y00118D01*
X02098Y00108*
X02112*
X02118Y00112D02*
X02121D01*
Y00108*
X02118*
Y00112*
Y00102D02*
X02121D01*
Y00098*
X02118*
Y00102*
X02148Y00115D02*
X02144Y00118D01*
X02138*
X02135Y00115*
Y00102*
X02138Y00098*
X02144*
X02148Y00102*
Y00108*
X02141*
X02154Y00098D02*
Y00118D01*
X02167Y00098*
Y00118*
X02174D02*
Y00098D01*
X02184*
X02187Y00102*
Y00115*
X02184Y00118*
X02174*
X02233D02*
Y00105D01*
X02239Y00098*
X02246Y00105*
Y00118*
X02253Y00108D02*
X02266D01*
X02259Y00115D02*
Y00102D01*
X02325Y00115D02*
X02321Y00118D01*
X02315*
X02312Y00115*
Y00112*
X02315Y00108*
X02321*
X02325Y00105*
Y00102*
X02321Y00098*
X02315*
X02312Y00102*
X02331Y00118D02*
X02338D01*
X02335*
Y00098*
X02331*
X02338*
X02361Y00115D02*
X02358Y00118D01*
X02351*
X02348Y00115*
Y00102*
X02351Y00098*
X02358*
X02361Y00102*
Y00108*
X02354*
X02012Y00115D02*
X02008Y00118D01*
X02002*
X01998Y00115*
Y00102*
X02002Y00098*
X02008*
X02012Y00102*
Y00108*
X02005*
X02018Y00098D02*
Y00118D01*
X02031Y00098*
Y00118*
X02038D02*
Y00098D01*
X02048*
X02051Y00102*
Y00115*
X02048Y00118*
X02038*
X01302Y00098D02*
X01288D01*
X01302Y00112*
Y00115*
X01298Y00118*
X01292*
X01288Y00115*
X01308Y00112D02*
X01311D01*
Y00108*
X01308*
Y00112*
Y00102D02*
X01311D01*
Y00098*
X01308*
Y00102*
X01338Y00115D02*
X01334Y00118D01*
X01328*
X01325Y00115*
Y00102*
X01328Y00098*
X01334*
X01338Y00102*
Y00108*
X01331*
X01344Y00098D02*
Y00118D01*
X01357Y00098*
Y00118*
X01364D02*
Y00098D01*
X01374*
X01377Y00102*
Y00115*
X01374Y00118*
X01364*
X01423D02*
Y00105D01*
X01429Y00098*
X01436Y00105*
Y00118*
X01443Y00108D02*
X01456D01*
X01449Y00115D02*
Y00102D01*
X01515Y00115D02*
X01511Y00118D01*
X01505*
X01502Y00115*
Y00112*
X01505Y00108*
X01511*
X01515Y00105*
Y00102*
X01511Y00098*
X01505*
X01502Y00102*
X01521Y00118D02*
X01528D01*
X01525*
Y00098*
X01521*
X01528*
X01551Y00115D02*
X01548Y00118D01*
X01541*
X01538Y00115*
Y00102*
X01541Y00098*
X01548*
X01551Y00102*
Y00108*
X01544*
X00868Y00098D02*
X00875D01*
X00872*
Y00118*
X00868Y00115*
X00885Y00112D02*
X00888D01*
Y00108*
X00885*
Y00112*
Y00102D02*
X00888D01*
Y00098*
X00885*
Y00102*
X00914Y00115D02*
X00911Y00118D01*
X00905*
X00901Y00115*
Y00102*
X00905Y00098*
X00911*
X00914Y00102*
Y00108*
X00908*
X00921Y00098D02*
Y00118D01*
X00934Y00098*
Y00118*
X00941D02*
Y00098D01*
X0095*
X00954Y00102*
Y00115*
X0095Y00118*
X00941*
X01D02*
Y00105D01*
X01006Y00098*
X01013Y00105*
Y00118*
X01019Y00108D02*
X01032D01*
X01026Y00115D02*
Y00102D01*
X01091Y00115D02*
X01088Y00118D01*
X01082*
X01078Y00115*
Y00112*
X01082Y00108*
X01088*
X01091Y00105*
Y00102*
X01088Y00098*
X01082*
X01078Y00102*
X01098Y00118D02*
X01105D01*
X01101*
Y00098*
X01098*
X01105*
X01128Y00115D02*
X01124Y00118D01*
X01118*
X01114Y00115*
Y00102*
X01118Y00098*
X01124*
X01128Y00102*
Y00108*
X01121*
G54D17*
X02185Y01922D02*
Y01962D01*
X02204Y01982*
X02224Y01962*
Y01922*
Y01952*
X02185*
X02244Y01962D02*
Y01922D01*
Y01942*
X02254Y01952*
X02264Y01962*
X02274*
X02304Y01922D02*
Y01962D01*
X02314*
X02324Y01952*
Y01922*
Y01952*
X02334Y01962*
X02344Y01952*
Y01922*
X02424D02*
Y01982D01*
X02454*
X02464Y01972*
Y01952*
X02454Y01942*
X02424*
X02494Y01922D02*
X02514D01*
X02524Y01932*
Y01952*
X02514Y01962*
X02494*
X02484Y01952*
Y01932*
X02494Y01922*
X02544Y01962D02*
Y01932D01*
X02554Y01922*
X02564Y01932*
X02574Y01922*
X02584Y01932*
Y01962*
X02634Y01922D02*
X02614D01*
X02604Y01932*
Y01952*
X02614Y01962*
X02634*
X02644Y01952*
Y01942*
X02604*
X02664Y01962D02*
Y01922D01*
Y01942*
X02674Y01952*
X02684Y01962*
X02694*
X02784Y01922D02*
Y01982D01*
X02814*
X02824Y01972*
Y01952*
X02814Y01942*
X02784*
X02884Y01972D02*
X02874Y01982D01*
X02854*
X02844Y01972*
Y01932*
X02854Y01922*
X02874*
X02884Y01932*
X02904Y01982D02*
Y01922D01*
X02934*
X02944Y01932*
Y01942*
X02934Y01952*
X02904*
X02934*
X02944Y01962*
Y01972*
X02934Y01982*
X02904*
X02224Y01876D02*
X02214Y01886D01*
X02194*
X02185Y01876*
Y01836*
X02194Y01826*
X02214*
X02224Y01836*
Y01856*
X02204*
X02254Y01866D02*
X02274D01*
X02284Y01856*
Y01826*
X02254*
X02244Y01836*
X02254Y01846*
X02284*
X02304Y01866D02*
Y01826D01*
Y01846*
X02314Y01856*
X02324Y01866*
X02334*
X02364D02*
Y01826D01*
Y01846*
X02374Y01856*
X02384Y01866*
X02394*
X02454Y01826D02*
X02434D01*
X02424Y01836*
Y01856*
X02434Y01866*
X02454*
X02464Y01856*
Y01846*
X02424*
X02494Y01876D02*
Y01866D01*
X02484*
X02504*
X02494*
Y01836*
X02504Y01826*
X02544Y01876D02*
Y01866D01*
X02534*
X02554*
X02544*
Y01836*
X02554Y01826*
X02185Y0177D02*
X02204Y0173D01*
X02224Y0177*
X02274Y0173D02*
X02254D01*
X02244Y0174*
Y0176*
X02254Y0177*
X02274*
X02284Y0176*
Y0175*
X02244*
X02304Y0177D02*
Y0173D01*
Y0175*
X02314Y0176*
X02324Y0177*
X02334*
X02364Y0173D02*
X02394D01*
X02404Y0174*
X02394Y0175*
X02374*
X02364Y0176*
X02374Y0177*
X02404*
X02424Y0173D02*
X02444D01*
X02434*
Y0177*
X02424*
X02484Y0173D02*
X02504D01*
X02514Y0174*
Y0176*
X02504Y0177*
X02484*
X02474Y0176*
Y0174*
X02484Y0173*
X02534D02*
Y0177D01*
X02564*
X02574Y0176*
Y0173*
X02654D02*
X02674D01*
X02664*
Y0179*
X02654Y0178*
X02185Y01684D02*
X02194Y01694D01*
X02214*
X02224Y01684*
Y01674*
X02214Y01664*
X02224Y01654*
Y01644*
X02214Y01635*
X02194*
X02185Y01644*
Y01654*
X02194Y01664*
X02185Y01674*
Y01684*
X02194Y01664D02*
X02214D01*
X02244Y01635D02*
X02284Y01674D01*
X02304Y01684D02*
X02314Y01694D01*
X02334*
X02344Y01684*
Y01674*
X02334Y01664*
X02324*
X02334*
X02344Y01654*
Y01644*
X02334Y01635*
X02314*
X02304Y01644*
X02364Y01635D02*
X02404Y01674D01*
X02464Y01635D02*
X02424D01*
X02464Y01674*
Y01684*
X02454Y01694*
X02434*
X02424Y01684*
X02524Y01694D02*
X02504Y01684D01*
X02484Y01664*
Y01644*
X02494Y01635*
X02514*
X02524Y01644*
Y01654*
X02514Y01664*
X02484*
X00814Y01615D02*
X00815Y01675D01*
X00845Y01675*
X00855Y01665*
X00855Y01645*
X00844Y01635*
X00814Y01635*
X00834Y01635D02*
X00854Y01615D01*
X00875Y01664D02*
X00885Y01674D01*
X00905Y01674*
X00915Y01664*
X00915Y01654*
X00904Y01644*
X00894Y01644*
X00904Y01644*
X00914Y01634*
X00914Y01624*
X00904Y01614*
X00884Y01614*
X00874Y01624*
X00055Y01089D02*
Y0106D01*
X00065Y0105*
X00095*
Y01089*
X00115Y0105D02*
X00145D01*
X00155Y0106*
X00145Y0107*
X00125*
X00115Y0108*
X00125Y01089*
X00155*
X00175Y01109D02*
Y0105D01*
X00205*
X00215Y0106*
Y0107*
Y0108*
X00205Y01089*
X00175*
X00275D02*
X00245D01*
X00235Y0108*
Y0106*
X00245Y0105*
X00275*
X00294Y0104D02*
X00334D01*
X00394Y01089D02*
X00364D01*
X00354Y0108*
Y0106*
X00364Y0105*
X00394*
X00424D02*
X00444D01*
X00454Y0106*
Y0108*
X00444Y01089*
X00424*
X00414Y0108*
Y0106*
X00424Y0105*
X00474D02*
Y01089D01*
X00504*
X00514Y0108*
Y0105*
X00895Y02061D02*
Y02001D01*
X00925*
X00935Y02011*
Y02051*
X00925Y02061*
X00895*
X00954Y02001D02*
X00974D01*
X00964*
Y02061*
X00954Y02051*
X01565Y01364D02*
X01555Y01374D01*
X01535*
X01525Y01364*
Y01325*
X01535Y01315*
X01555*
X01565Y01325*
X01624Y01315D02*
X01584D01*
X01624Y01354*
Y01364*
X01614Y01374*
X01594*
X01584Y01364*
X00228Y01819D02*
X00227Y01879D01*
X00257Y01879*
X00267Y01869*
X00268Y01849*
X00258Y01839*
X00228Y01839*
X00248Y01839D02*
X00268Y01819D01*
X00328Y0182D02*
X00288Y0182D01*
X00327Y0186*
X00327Y0187*
X00317Y0188*
X00297Y0188*
X00287Y0187*
X00049Y01819D02*
X00047Y01879D01*
X00077Y0188*
X00088Y0187*
X00088Y0185*
X00078Y0184*
X00048Y01839*
X00068Y0184D02*
X00089Y0182D01*
X00109Y01821D02*
X00129Y01821D01*
X00119Y01821*
X00117Y01881*
X00108Y01871*
X0006Y00505D02*
Y00564D01*
X0009*
X001Y00554*
Y00535*
X0009Y00525*
X0006*
X00119Y00505D02*
X00139D01*
X00129*
Y00564*
X00119Y00554*
X00625Y01769D02*
X00585D01*
Y0174*
X00605*
X00585*
Y0171*
X00644D02*
X00664D01*
X00654*
Y01769*
X00644Y01759*
X02575Y00924D02*
X02565Y00934D01*
X02545*
X02535Y00924*
Y00885*
X02545Y00875*
X02565*
X02575Y00885*
X02595Y00875D02*
X02615D01*
X02605*
Y00934*
X02595Y00924*
X02644D02*
X02654Y00934D01*
X02674*
X02684Y00924*
Y00885*
X02674Y00875*
X02654*
X02644Y00885*
Y00924*
X02339Y00819D02*
X02329Y00829D01*
X02309*
X02299Y00819*
Y0078*
X02309Y0077*
X02329*
X02339Y0078*
X02359D02*
X02369Y0077D01*
X02389*
X02399Y0078*
Y00819*
X02389Y00829*
X02369*
X02359Y00819*
Y00809*
X02369Y008*
X02399*
X02015Y00924D02*
X02005Y00934D01*
X01985*
X01975Y00924*
Y00885*
X01985Y00875*
X02005*
X02015Y00885*
X02034Y00924D02*
X02044Y00934D01*
X02064*
X02074Y00924*
Y00914*
X02064Y00905*
X02074Y00895*
Y00885*
X02064Y00875*
X02044*
X02034Y00885*
Y00895*
X02044Y00905*
X02034Y00914*
Y00924*
X02044Y00905D02*
X02064D01*
X01817Y00824D02*
X01807Y00834D01*
X01787*
X01777Y00824*
Y00785*
X01787Y00775*
X01807*
X01817Y00785*
X01837Y00834D02*
X01877D01*
Y00824*
X01837Y00785*
Y00775*
X01565Y00879D02*
X01555Y00889D01*
X01535*
X01525Y00879*
Y0084*
X01535Y0083*
X01555*
X01565Y0084*
X01624Y00889D02*
X01604Y00879D01*
X01584Y0086*
Y0084*
X01594Y0083*
X01614*
X01624Y0084*
Y0085*
X01614Y0086*
X01584*
X01345Y00749D02*
X01335Y00759D01*
X01315*
X01305Y00749*
Y0071*
X01315Y007*
X01335*
X01345Y0071*
X01405Y00759D02*
X01365D01*
Y0073*
X01385Y00739*
X01395*
X01405Y0073*
Y0071*
X01395Y007*
X01375*
X01365Y0071*
X01014Y00869D02*
X01004Y00879D01*
X00984Y00879*
X00974Y00869*
X00975Y00829*
X00985Y00819*
X01005Y00819*
X01015Y00829*
X01065Y0082D02*
X01064Y0088D01*
X01034Y0085*
X01074Y0085*
X0084Y00744D02*
X0083Y00754D01*
X0081*
X008Y00744*
Y00705*
X0081Y00695*
X0083*
X0084Y00705*
X00859Y00744D02*
X00869Y00754D01*
X00889*
X00899Y00744*
Y00734*
X00889Y00725*
X00879*
X00889*
X00899Y00715*
Y00705*
X00889Y00695*
X00869*
X00859Y00705*
X01315Y01699D02*
X01305Y01709D01*
X01285*
X01275Y01699*
Y0166*
X01285Y0165*
X01305*
X01315Y0166*
X01334Y0165D02*
X01354D01*
X01344*
Y01709*
X01334Y01699*
X02519Y00134D02*
Y00154D01*
Y00144*
X0246*
X0247Y00134*
X0248Y00184D02*
X02519Y00224D01*
X025Y00204*
X0248Y00224*
X02519Y00184*
Y00244D02*
Y00264D01*
Y00254*
X0246*
X0247Y00244*
X0246Y00334D02*
Y00294D01*
X0249*
X0248Y00314*
Y00324*
X0249Y00334*
X02509*
X02519Y00324*
Y00304*
X02509Y00294*
X02529Y00354D02*
Y00393D01*
X0248Y00453D02*
Y00423D01*
X0249Y00413*
X02509*
X02519Y00423*
Y00453*
Y00483D02*
Y00503D01*
X02509Y00513*
X0249*
X0248Y00503*
Y00483*
X0249Y00473*
X02509*
X02519Y00483*
Y00533D02*
X0248D01*
Y00563*
X0249Y00573*
X02519*
M02*